<svg xmlns="http://www.w3.org/2000/svg" version="1.1" xmlns:xlink="http://www.w3.org/1999/xlink" xmlns:svgjs="http://svgjs.dev/svgjs" width="100%" height="100%" viewBox="0 0 1000 600"><rect width="1000" height="600" x="0" y="0" fill="#f8fafc"/><g><circle r="166.66666666666666" cx="350.34728495279944" cy="372.56951935797633" fill="#0a6c74" transform="matrix(0.6805290077722558,0,0,0.6805290077722557,0,46.45562844912658)"/><path d="M389.9962585986894 344.2772978143683L382.62434219687395 344.2772978143683Q381.998156247685 334.4575636111778 377.8994845802664 325.63403432715165Q373.80081291284773 316.8389680408158 366.0019515456762 311.2886834911865Q358.23155317619506 305.76686193924746 346.134779157772 305.76686193924746L346.134779157772 305.76686193924746Q333.4402821878504 305.76686193924746 326.6660887375335 312.9395373572301Q319.89189528721664 320.11221277521264 319.89189528721664 329.73270599457027L319.89189528721664 329.73270599457027Q319.89189528721664 338.35699429476364 324.8159938876571 344.1919088212971Q329.7400924880975 350.02682334783054 337.6243428483403 354.4385879898437Q345.5085932085831 358.85035263185677 354.3321224926093 362.94902429927544L354.3321224926093 362.94902429927544Q362.1309838597808 366.4215100175051 369.90138222926197 370.406329694162Q377.70024359643355 374.4196123685095 384.0474920813943 379.54295195278274Q390.3947405663551 384.666291537056 394.18031925917927 391.725114964277Q397.9943609496938 398.8124013891883 397.9943609496938 408.6321355923788L397.9943609496938 408.6321355923788Q397.9943609496938 419.9034826777801 392.3586874069932 428.72701196180634Q386.7230138642926 437.5220782481421 376.0493897303899 442.56002883934417Q365.40422859417765 447.5695164328558 350.0342098413578 447.5695164328558L350.0342098413578 447.5695164328558Q340.81219858966585 447.5695164328558 330.964001388785 444.92245764764795Q321.1442671855946 442.2469358647497 313.54464680225584 437.1235962804764L313.54464680225584 437.1235962804764L314.5693147191105 445.94712556450264L303.9241535828982 445.94712556450264L302.7002446822107 402.2848871074181L310.6698840355247 402.2848871074181Q311.69455195237936 420.33042764313615 323.19360301930385 429.6378278878993Q334.6641910885379 438.97369113035285 350.8596367743796 438.97369113035285L350.8596367743796 438.97369113035285Q358.82927612769356 438.97369113035285 365.6034695780105 435.9850763728601Q372.3776630283274 433.02492461305775 376.36248270498436 427.2753990795955Q380.3473023816414 421.5543365438237 380.3473023816414 413.35699320898647L380.3473023816414 413.35699320898647Q380.3473023816414 404.13498195729454 375.45166677889137 397.9869744561666Q370.5275681784509 391.83896695503864 362.7287068112794 387.31335032226394Q354.95830844179824 382.81619668717957 346.134779157772 378.717525019761L346.134779157772 378.717525019761Q338.33591779060043 375.2450393015312 330.76476040495214 371.3456086179455Q323.19360301930385 367.4461779343597 316.93174352741426 362.4366903408481Q310.6698840355247 357.39873974964604 306.8843053427006 350.42530531549625Q303.0987266498764 343.4803338790369 303.0987266498764 333.6321366781561L303.0987266498764 333.6321366781561Q303.0987266498764 328.3095561100499 304.94882149975285 322.16154860892203Q306.79891634962934 316.0135411077941 311.4099219754753 310.3778675650934Q316.02092760132126 304.7421940223928 324.1044189453969 301.1558563134015Q332.1879102894725 297.56951860441023 344.7116292732517 297.56951860441023L344.7116292732517 297.56951860441023Q352.4820276427328 297.56951860441023 362.21637285285203 299.7042434311908Q371.9507180629713 301.8674312556617 380.3473023816414 308.01543875678965L380.3473023816414 308.01543875678965L379.55033844631 299.1919094727634L389.9962585986894 299.1919094727634L389.9962585986894 344.2772978143683Z " fill="#f7f7f7" transform="matrix(0.6805290077722558,0,0,0.6805290077722557,0,46.45562844912658)"/><path d="M683.2242571541219 349.5061046140184L676.2255184575072 349.5061046140184Q675.6310310006519 340.1834604042421 671.7398403739626 331.8065916940083Q667.8486497472734 323.4567451409043 660.444578693712 318.18742450059597Q653.0675297972803 312.9451260174174 641.5831130171209 312.9451260174174L641.5831130171209 312.9451260174174Q629.5312309372362 312.9451260174174 623.0999575403471 319.75470961412356Q616.6686841434579 326.56429321082976 616.6686841434579 335.6977823206975L616.6686841434579 335.6977823206975Q616.6686841434579 343.88549593102283 621.3435173269108 349.42503814262903Q626.0183505103639 354.96458035423535 633.5034880353148 359.15301470935214Q640.9886255602656 363.34144906446903 649.3654942704994 367.23263969115834L649.3654942704994 367.23263969115834Q656.769565324061 370.52934286099224 664.1466142204927 374.3124448591623Q671.5506852740541 378.1225690144623 677.5766263139965 382.9865572978238Q683.6025673539389 387.8505455811854 687.1965142522005 394.5520405493724Q690.8174833075918 401.2805576746892 690.8174833075918 410.6032018844656L690.8174833075918 410.6032018844656Q690.8174833075918 421.30397610786093 685.4670961958941 429.6808448180947Q680.1167090841964 438.03069137119877 669.9834001605265 442.81361318317096Q659.8771133939863 447.5695128380134 645.2851485439016 447.5695128380134L645.2851485439016 447.5695128380134Q636.5299696338509 447.5695128380134 627.1803032669447 445.05645222494326Q617.8576590571685 442.51636945474326 610.6427431035155 437.6523811713817L610.6427431035155 437.6523811713817L611.6155407601877 446.0292498816155L601.5092539936477 446.0292498816155L600.3473012370669 404.5772608445232L607.913505233407 404.5772608445232Q608.8863028900794 421.70930846480775 619.8032543705131 430.54555384624797Q630.693183693817 439.4088213848178 646.0687911006655 439.4088213848178L646.0687911006655 439.4088213848178Q653.6349950970057 439.4088213848178 660.0662684938949 436.57149488619024Q666.4975418907841 433.7611905446925 670.2806438889542 428.30271480447567Q674.0637458871242 422.8712612213886 674.0637458871242 415.0888799680101L674.0637458871242 415.0888799680101Q674.0637458871242 406.33370105795933 669.4159348608009 400.4969151179254Q664.741101677348 394.6601291778915 657.3370306237864 390.3636061942555Q649.9599817273547 386.09410536774925 641.5831130171209 382.20291474106006L641.5831130171209 382.20291474106006Q634.1790419635595 378.90621157122604 626.9911481670363 375.2041760444453Q619.8032543705131 371.5021405176646 613.8583798019602 366.74624086282216Q607.913505233407 361.96331905085 604.3195583351455 355.3428905540523Q600.7256114368838 348.7494842143844 600.7256114368838 339.39981784747835L600.7256114368838 339.39981784747835Q600.7256114368838 334.3466744642082 602.48205165032 328.5098885241744Q604.238491863756 322.6731025841405 608.6160813187815 317.3227154724428Q612.9936707738069 311.97232836074505 620.6679633986662 308.567536562392Q628.3422560235256 305.16274476403896 640.2320051606316 305.16274476403896L640.2320051606316 305.16274476403896Q647.6090540570633 305.16274476403896 656.8506317954502 307.1894065487729Q666.0922095338373 309.24309049063663 674.0637458871242 315.0798764306705L674.0637458871242 315.0798764306705L673.3071254874902 306.70300772043674L683.2242571541219 306.70300772043674L683.2242571541219 349.5061046140184ZM818.0377990746263 444.46196476808797L761.2372247878152 444.46196476808797L761.2372247878152 438.03069137119877Q768.6412958413767 437.8415362712903 771.3435115543554 434.62589957284564Q774.0727494244638 431.43728503153085 774.3699931528914 425.8707206627949Q774.6672368813191 420.3311784511887 774.6672368813191 413.1432846546655L774.6672368813191 413.1432846546655L774.6672368813191 331.42828149419137Q774.6672368813191 326.158960853883 774.8563919812276 322.37585885571286Q775.0455470811361 318.5927568575427 775.2347021810447 316.05267408734284L775.2347021810447 316.05267408734284Q771.7488439113022 316.2418291872513 768.2359634844299 316.43098428715984Q764.7501052146874 316.6471615441981 761.2372247878152 316.83631664410666L761.2372247878152 316.83631664410666L761.2372247878152 308.2702928339644Q771.9379990112106 308.0811377340558 782.7468618631252 307.9730491055367Q793.52870255791 307.8919826341473 805.2022744379777 307.8919826341473L805.2022744379777 307.8919826341473Q827.7657756413495 307.8919826341473 840.5202338066086 315.86351898743436Q853.2746919718678 323.83505534072134 852.869359614921 341.15625806091447L852.869359614921 341.15625806091447Q852.869359614921 347.3713542007653 849.2754127166594 353.61347249774593Q845.6814658183978 359.8285686375969 838.574638493264 364.5844682924392Q831.4678111681302 369.3673901044114 820.7670369447347 371.3129854177561L820.7670369447347 371.3129854177561L820.7670369447347 371.6912956175731Q842.1685853915257 371.6912956175731 853.0585147148295 381.5273608128154Q863.9754661952633 391.33640385092787 863.9754661952633 406.33370105795933L863.9754661952633 406.33370105795933Q863.9754661952633 418.1964280379355 857.922502998191 426.7624518480778Q851.8965619582488 435.32847565822016 841.6011200918001 439.895220213154Q831.2786560682216 444.46196476808797 818.0377990746263 444.46196476808797L818.0377990746263 444.46196476808797ZM791.0156419448399 436.67958351470946L791.0156419448399 436.67958351470946Q794.1231900147653 436.86873861461794 798.5007794697908 436.97682724313705Q802.8783689248162 437.0578937145264 806.6614709229863 437.0578937145264Q810.4715950782861 437.0578937145264 811.6335478348669 437.0578937145264L811.6335478348669 437.0578937145264Q826.6038228847686 437.0578937145264 835.8454006231556 429.5727561895756Q845.0869783615425 422.0876186646248 845.0869783615425 407.49565381454005L845.0869783615425 407.49565381454005Q845.0869783615425 395.6329268345639 840.4121451780895 389.0124983377662Q835.7643341517662 382.39206984096853 828.1711079982962 379.66283197086005Q820.5778818448263 376.96061625788144 811.6335478348669 376.96061625788144L811.6335478348669 376.96061625788144Q805.796761894833 376.96061625788144 801.013840082861 377.0416827292708Q796.2579404280185 377.1497713577899 791.5831072445654 377.528081557607L791.5831072445654 377.528081557607L791.5831072445654 421.4931312077695Q791.5831072445654 426.7624518480778 791.5020407731761 430.4644873748586Q791.3939521446569 434.13950074450946 791.0156419448399 436.67958351470946ZM791.5831072445654 333.7521870073529L791.5831072445654 369.93485540413695L805.796761894833 369.55654520432Q816.8758463180455 369.3673901044114 823.3071197149347 364.98980064938604Q829.7113709546941 360.61221119436067 832.5486974533217 353.991782697563Q835.3590017948195 347.3713542007653 835.1698466949109 340.1834604042421L835.1698466949109 340.1834604042421Q834.9806915950024 329.67184128075525 830.4139470400685 324.21336554053835Q825.8201803280049 318.7819119574513 819.226773988337 316.83631664410666Q812.6063454915393 314.890721330762 806.1750720946501 314.890721330762L806.1750720946501 314.890721330762Q799.7708208548908 314.890721330762 796.6362506278355 316.6471615441981Q793.52870255791 318.3765796005045 792.5559049012377 322.48394748423203Q791.5831072445654 326.56429321082976 791.5831072445654 333.7521870073529L791.5831072445654 333.7521870073529ZM928.3692666355444 447.5695128380134L928.3692666355444 447.5695128380134Q914.750099442132 447.5695128380134 903.6439928617897 441.2463280696433Q892.5649084385773 434.92314330127334 886.0525685702987 423.7359702495417Q879.5402287020202 412.5487971978102 879.5402287020202 398.145987447634L879.5402287020202 398.145987447634Q879.5402287020202 382.79740219791535 885.9444799417797 370.52934286099224Q892.3757533386688 358.26128352406926 903.4548377618812 351.18147835606516Q914.5609443422234 344.0746510309313 928.3692666355444 344.0746510309313L928.3692666355444 344.0746510309313Q941.9884338289567 344.0746510309313 953.0675182521691 350.58699089920987Q964.1736248325112 357.0993307674884 970.7670311721791 368.2054373478306Q977.3874596689768 379.2845217710431 977.3874596689768 393.4981764213107L977.3874596689768 393.4981764213107Q977.3874596689768 408.4684514712124 970.8751198006985 420.81757727952487Q964.3627799324198 433.1667030878372 953.2566733520775 440.3816190414902Q942.1775889288651 447.5695128380134 928.3692666355444 447.5695128380134ZM929.9095295919421 439.7871315846349L929.9095295919421 439.7871315846349Q940.2319936155205 439.7871315846349 946.2579346554629 433.950345644601Q952.2838756954052 428.1135597045672 954.9320470941244 418.7909154947908Q957.5531963357137 409.44124912788476 957.5531963357137 399.11878510430626L957.5531963357137 399.11878510430626Q957.5531963357137 390.3636061942555 955.9048447507967 381.90567101263235Q954.2294710087499 373.4477358310092 950.7436127390074 366.5300636057838Q947.2307323121353 359.6394135376883 941.691190100529 355.55906781109064Q936.1516478889228 351.451699927363 928.3692666355444 351.451699927363L928.3692666355444 351.451699927363Q918.2359577118743 351.451699927363 911.831706472115 357.2884858673969Q905.4004330752259 363.1252718074308 902.4009736338196 372.47493817433684Q899.3744920352835 381.824604541243 899.3744920352835 392.52537876463845L899.3744920352835 392.52537876463845Q899.3744920352835 404.5772608445232 902.6711952051174 415.3861236964378Q905.9949205320812 426.1679643912225 912.8045041287874 432.97754798792874Q919.6140877254935 439.7871315846349 929.9095295919421 439.7871315846349ZM1042.1865924662047 447.5695128380134L1042.1865924662047 447.5695128380134Q1028.5674252727924 447.5695128380134 1017.4613186924502 441.2463280696433Q1006.3822342692376 434.92314330127334 999.8698944009592 423.7359702495417Q993.3575545326808 412.5487971978102 993.3575545326808 398.145987447634L993.3575545326808 398.145987447634Q993.3575545326808 382.79740219791535 999.7618057724401 370.52934286099224Q1006.1930791693292 358.26128352406926 1017.2721635925416 351.18147835606516Q1028.378270172884 344.0746510309313 1042.1865924662047 344.0746510309313L1042.1865924662047 344.0746510309313Q1055.805759659617 344.0746510309313 1066.8848440828297 350.58699089920987Q1077.9909506631718 357.0993307674884 1084.5843570028396 368.2054373478306Q1091.2047854996374 379.2845217710431 1091.2047854996374 393.4981764213107L1091.2047854996374 393.4981764213107Q1091.2047854996374 408.4684514712124 1084.6924456313586 420.81757727952487Q1078.1801057630803 433.1667030878372 1067.0739991827381 440.3816190414902Q1055.9949147595257 447.5695128380134 1042.1865924662047 447.5695128380134ZM1043.7268554226025 439.7871315846349L1043.7268554226025 439.7871315846349Q1054.049319446181 439.7871315846349 1060.0752604861234 433.950345644601Q1066.1012015260658 428.1135597045672 1068.749372924785 418.7909154947908Q1071.370522166374 409.44124912788476 1071.370522166374 399.11878510430626L1071.370522166374 399.11878510430626Q1071.370522166374 390.3636061942555 1069.722170581457 381.90567101263235Q1068.0467968394103 373.4477358310092 1064.560938569668 366.5300636057838Q1061.0480581427955 359.6394135376883 1055.5085159311893 355.55906781109064Q1049.9689737195831 351.451699927363 1042.1865924662047 351.451699927363L1042.1865924662047 351.451699927363Q1032.0532835425347 351.451699927363 1025.6490323027754 357.2884858673969Q1019.2177589058863 363.1252718074308 1016.21829946448 372.47493817433684Q1013.1918178659439 381.824604541243 1013.1918178659439 392.52537876463845L1013.1918178659439 392.52537876463845Q1013.1918178659439 404.5772608445232 1016.4885210357779 415.3861236964378Q1019.8122463627416 426.1679643912225 1026.6218299594477 432.97754798792874Q1033.431413556154 439.7871315846349 1043.7268554226025 439.7871315846349ZM1145.6814542732868 444.46196476808797L1105.9859054496305 444.46196476808797L1105.9859054496305 438.62517882805406Q1112.0388686467027 438.62517882805406 1114.254685531345 435.598697229518Q1116.4975245731175 432.5992377881117 1116.9028569300642 427.24885067641395Q1117.2811671298814 421.8984635647162 1117.2811671298814 414.8997248681016L1117.2811671298814 414.8997248681016L1117.4703222297899 322.862257684049Q1117.4703222297899 319.75470961412356 1117.5784108583089 316.91738311549597Q1117.6594773296983 314.10707877399824 1118.064809686645 310.215888147309L1118.064809686645 310.215888147309Q1114.5519292597728 310.40504324721746 1111.1471374614198 310.59419834712594Q1107.7423456630665 310.8103756041643 1104.2564873933243 310.99953070407275L1104.2564873933243 310.99953070407275L1104.2564873933243 302.8118170937475Q1112.7954890463366 302.8118170937475 1117.4703222297899 302.0551966941134Q1122.1451554132427 301.27155413734965 1124.5771495549236 300.1096013807688Q1127.0091436966045 298.92062646705824 1128.3602515530938 297.56951861056893L1128.3602515530938 297.56951861056893L1134.007882393219 297.56951861056893L1134.007882393219 389.6069857946215L1141.7902636465974 389.6069857946215L1165.54273976368 364.69255692095845Q1168.8394429335137 361.39585375112443 1171.568680803622 358.74768235240543Q1174.2979186737307 356.12653311081607 1177.0001343867093 354.37009289737995L1177.0001343867093 354.37009289737995L1163.7862995502437 354.96458035423535L1163.7862995502437 347.18219910085685L1199.1853253902639 347.18219910085685L1199.1853253902639 353.01898504089064Q1192.564896893466 353.61347249774593 1186.8361995819514 357.20741939600754Q1181.1075022704367 360.80136629426914 1176.3245804584647 365.28704437781374Q1171.568680803622 369.7457003042285 1168.05580037675 373.4477358310092L1168.05580037675 373.4477358310092L1152.8963702269398 389.39080853758327Q1156.787560853629 391.1472487510193 1159.4897765666076 393.87648662112775Q1162.2190144367162 396.6057244912361 1164.9482523068245 399.90242766107013L1164.9482523068245 399.90242766107013L1178.7565746001453 417.6019405810802Q1179.7293722568177 418.7909154947908 1182.1613663984986 422.0876186646248Q1184.5933605401792 425.3843218344587 1187.9981523385322 429.2755124611479Q1191.4029441368853 433.1667030878372 1195.2130682921852 435.8959409579456Q1198.9961702903554 438.62517882805406 1202.2928734601892 438.62517882805406L1202.2928734601892 438.62517882805406L1202.2928734601892 444.46196476808797L1184.5933605401792 444.46196476808797Q1179.161906957092 444.46196476808797 1174.2979186737307 438.81433392796254Q1169.433930390369 433.1667030878372 1163.9754546501522 426.1679643912225L1163.9754546501522 426.1679643912225Q1158.9223112668822 419.16922569460786 1154.9230320116735 413.44052838309307Q1150.950774913595 407.68480891444864 1147.7351382151505 403.4153080879424Q1144.519501516706 399.11878510430626 1141.9794187465059 396.7948795911447L1141.9794187465059 396.7948795911447L1134.007882393219 397.17318979096166L1134.007882393219 423.84405887806093Q1134.007882393219 427.73524950475013 1133.9268159218295 430.73470894615645Q1133.8187272933105 433.7611905446925 1133.2242398364551 437.0578937145264L1133.2242398364551 437.0578937145264Q1136.3588100635104 436.86873861461794 1139.4663581334357 436.7876721432286Q1142.5739062033613 436.67958351470946 1145.6814542732868 436.490428414801L1145.6814542732868 436.490428414801L1145.6814542732868 444.46196476808797ZM1252.1217312075155 447.5695128380134L1252.1217312075155 447.5695128380134Q1242.3937546407924 447.5695128380134 1234.8005284873223 444.94836359642403Q1227.2073023338523 442.3272143548348 1222.343314050491 439.003489027871L1222.343314050491 439.003489027871L1223.1269566072547 445.8130726245773L1214.9392429969296 445.8130726245773L1213.7772902403485 412.3596420979017L1219.803231280291 412.3596420979017Q1220.2085636372378 420.3311784511887 1224.2889093638355 426.65436321955866Q1228.3692550904332 432.97754798792874 1234.8005284873223 436.490428414801Q1241.2047797270818 439.97628668454337 1248.6088507806433 439.97628668454337L1248.6088507806433 439.97628668454337Q1253.6619941639133 439.97628668454337 1258.5259824472748 438.32793509962636Q1263.3899707306366 436.67958351470946 1266.7136960576001 433.27479171635633Q1270.0103992274342 429.8699999180032 1270.0103992274342 424.6277014348247L1270.0103992274342 424.6277014348247Q1270.0103992274342 419.16922569460786 1266.7947625289896 415.57527879634625Q1263.5791258305449 411.98133189808465 1258.3368273473664 409.25209402797617Q1253.0945288641879 406.5228561578678 1247.0415656671155 404.19895064470614L1247.0415656671155 404.19895064470614Q1241.2047797270818 401.84802297441473 1235.367993787048 399.3349623613446Q1229.531207847014 396.7948795911447 1224.5861530922632 393.28199916427246Q1219.6140761803824 389.79614089452997 1216.6956832103656 384.74299751125994Q1213.7772902403485 379.66283197086005 1213.7772902403485 372.28578307442837L1213.7772902403485 372.28578307442837Q1213.7772902403485 368.2054373478306 1215.344575353876 363.34144906446903Q1216.8848383102738 358.4774607811075 1220.5868738370548 354.0998713260821Q1224.2889093638355 349.72228187105674 1230.7201827607248 346.88495537242915Q1237.124434000484 344.0746510309313 1247.0415656671155 344.0746510309313L1247.0415656671155 344.0746510309313Q1252.310886307424 344.0746510309313 1258.7151375471833 345.8310912443674Q1265.1464109440724 347.5605093006738 1271.172351984015 352.42449758403535L1271.172351984015 352.42449758403535L1270.7940417841978 345.04744868760366L1278.9547332373934 345.04744868760366L1278.9547332373934 379.0953666711345L1272.7396370975425 379.0953666711345Q1272.3343047405958 372.28578307442837 1269.6320890276172 365.9625983060584Q1266.9028511575086 359.6394135376883 1261.6335305172004 355.4509791825714Q1256.3912320340216 351.2625448274545 1248.0143633237878 351.2625448274545L1248.0143633237878 351.2625448274545Q1239.0700293138286 351.2625448274545 1234.0168859305586 355.7482229109991Q1228.9637425472886 360.20687883741385 1228.9637425472886 366.04366477744776L1228.9637425472886 366.04366477744776Q1228.9637425472886 372.0966279745199 1232.7468445454585 376.06888507259845Q1236.5569687007585 380.06816432780687 1242.5829097407009 382.9865572978238Q1248.6088507806433 385.9049502678408 1255.4184343773493 388.63418813794914L1255.4184343773493 388.63418813794914Q1262.822505430911 391.74173620787457 1269.8212441275257 395.4437717346554Q1276.8199828241402 399.11878510430626 1281.3056609076848 404.6853494730423Q1285.7643168340994 410.2248916846485 1285.7643168340994 418.9800705946994L1285.7643168340994 418.9800705946994Q1285.7643168340994 428.7080471614225 1280.8192620793486 435.1122984011818Q1275.8471851674678 441.543571798071 1268.1728925426087 444.5700533966071Q1260.4715777606195 447.5695128380134 1252.1217312075155 447.5695128380134Z " fill="#0a6c74" transform="matrix(0.6805290077722558,0,0,0.6805290077722557,0,46.45562844912658)"/></g></svg>